<?xml version="1.0" encoding="utf-8"?>
<!-- Generator: Adobe Illustrator 21.0.2, SVG Export Plug-In . SVG Version: 6.00 Build 0)  -->
<svg version="1.1" id="Layer_1" xmlns="http://www.w3.org/2000/svg" xmlns:xlink="http://www.w3.org/1999/xlink" x="0px" y="0px"
	 viewBox="0 0 230 270" style="enable-background:new 0 0 230 270;" xml:space="preserve">
<style type="text/css">
	.st0{fill:#FF7058;}
	.st1{fill:#5B5351;}
	.st2{fill:#F6FAFB;}
	.st3{fill:#84DBFF;}
	.st4{fill:#F97378;}
	.st5{fill:#F1543F;}
	.st6{fill:#84DBFF;stroke:#54C0EB;stroke-width:3;stroke-miterlimit:10;}
	.st7{fill:#FFD15C;}
</style>
<g>
	<path class="st0" d="M170.1,140.2c0,0,4.3,1.6,0.5,22.7c-2,11.5-20.6,60.4-30.5,78.7c-0.6,1.2-2.6,1.6-3,0.2
		c-2.9-7.7-5.1-19.3-20.8-33.6"/>
	<path d="M138.1,244c-0.1,0-0.1,0-0.2,0c-1.1-0.1-1.9-0.7-2.3-1.7c-0.4-1.1-0.8-2.3-1.2-3.5c-2.5-7.4-6-17.5-19.3-29.7
		c-0.6-0.5-0.6-1.4-0.1-1.9c0.5-0.6,1.4-0.6,1.9-0.1c13.8,12.6,17.3,23.1,20,30.7c0.4,1.2,0.7,2.3,1.2,3.3c0.1,0,0.5-0.1,0.6-0.4
		c9.8-18.1,28.3-66.8,30.4-78.3c3.2-17.8,0.5-21,0.2-21.3c-0.6-0.4-0.8-1.1-0.6-1.7c0.2-0.7,1.1-1.1,1.8-0.8c1.3,0.5,5,3.6,1.3,24.3
		c-2.2,11.6-20.8,60.9-30.7,79.2C140.5,243.4,139.3,244,138.1,244z M169.5,141.5L169.5,141.5L169.5,141.5z M169.5,141.5L169.5,141.5
		L169.5,141.5z M169.4,141.4L169.4,141.4L169.4,141.4z"/>
</g>
<g>
	<path class="st0" d="M95.4,96.6c0,0-3.5-3-20,10.8c-9,7.4-42.6,47.6-53.6,65.3c-0.7,1.1,0,3,1.2,2.8c8-1.2,19.4-5,39.6,1.6"/>
	<path d="M62.7,178.5c-0.1,0-0.2,0-0.5-0.1c-17-5.6-27.5-3.6-35.3-2.2c-1.3,0.2-2.5,0.5-3.7,0.6c-1.1,0.1-2-0.2-2.6-1.2
		c-0.7-1.1-0.7-2.6,0-3.7c11-17.6,44.7-58,53.9-65.5C90.7,93,95.3,94.8,96.3,95.6c0.6,0.5,0.7,1.4,0.1,1.9c-0.5,0.5-1.2,0.6-1.8,0.2
		c-0.4-0.1-4.4-0.8-18.4,10.6c-9,7.4-42.3,47.5-53.3,64.9c-0.1,0.2-0.1,0.5,0,0.6c1.1-0.1,2.3-0.4,3.5-0.6c8-1.4,18.9-3.5,36.6,2.3
		c0.7,0.2,1.1,1.1,0.8,1.8C63.9,178.1,63.3,178.5,62.7,178.5z M94.7,97.7L94.7,97.7L94.7,97.7z M94.6,97.6L94.6,97.6L94.6,97.6z
		 M94.6,97.6L94.6,97.6L94.6,97.6z M94.6,97.6L94.6,97.6L94.6,97.6z"/>
</g>
<g>
	<path class="st1" d="M85.9,183.4L68,173c-0.4,2.4-0.3,7.7-0.4,9.7l13.9,8.1l13.9,8.1c1.7-1.1,6.4-3.6,8.3-5.1L85.9,183.4z"/>
	<path d="M95.5,200.2c-0.2,0-0.4-0.1-0.6-0.2L67,183.7c-0.4-0.2-0.6-0.6-0.6-1.1c0-0.7,0.1-1.7,0.1-2.9c0-2.5,0.1-5.3,0.3-6.9
		c0.1-0.4,0.3-0.7,0.7-0.9c0.3-0.2,0.8-0.1,1.1,0l17.9,10.4l0,0l17.9,10.4c0.3,0.2,0.5,0.5,0.6,0.9c0,0.4-0.1,0.8-0.4,1
		c-1.3,1-3.7,2.4-5.9,3.7c-1,0.6-1.9,1.1-2.5,1.5C95.9,200.1,95.7,200.2,95.5,200.2z M68.8,182.1l26.6,15.6c0.6-0.3,1.2-0.7,2-1.2
		c1.3-0.8,2.9-1.7,4.1-2.5l-32.6-19c-0.1,1.5-0.1,3.3-0.1,4.8C68.8,180.6,68.8,181.4,68.8,182.1z"/>
</g>
<g>
	<path class="st2" d="M191.6,25c-0.8-2.4-3-3.8-5.4-3.8c-0.4,0-0.7,0-1.1,0.1c-6.9,1.3-18.9,1.3-35.8,12.7c-1,0.6-1.9,1.3-2.9,2
		c-0.5,0.4-1,0.7-1.6,1.1c-2.5,1.9-5.1,4.1-7.9,6.6c-0.6,0.5-1.1,1-1.7,1.6c-1.1,1.1-2.3,2.2-3.3,3.2c-1.1,1.1-2.3,2.3-3.5,3.6
		c-8.9,9.8-19.2,23-30.4,40.9c0,0-6.7,10.2-14.2,24.4c-1.2,2.2-2.4,4.5-3.5,6.9c-1.8,3.6-3.6,7.3-5.3,11.1c-1.1,2.5-2.3,5.1-3.3,7.8
		c-1.6,3.9-3,8-4.3,12c-1.3,3.9-2.4,8-3.2,11.8c-0.6,2.6-1,5.1-1.3,7.7c-0.6,4.9-0.6,9.7,0,14l21.4,12.6l21.4,12.6
		c32.5-12.2,66.1-77.5,66.1-77.5C212,62.1,195.7,37.5,191.6,25z"/>
	<path d="M105.9,215.1c-0.2,0-0.5-0.1-0.7-0.2l-42.9-25.1c-0.4-0.2-0.6-0.6-0.7-1c-0.6-4.2-0.7-9.1,0-14.4c0.2-2.5,0.7-5,1.3-7.8
		c0.8-3.7,1.9-7.8,3.2-12c1.2-3.8,2.6-7.9,4.3-12.1c1.1-2.5,2.2-5.3,3.3-7.9c1.6-3.6,3.3-7.4,5.3-11.2c1.1-2.3,2.3-4.5,3.6-6.9
		c7.4-14,14.1-24.3,14.2-24.4c10.4-16.5,20.8-30.4,31-41.1c1.2-1.2,2.3-2.4,3.5-3.6c1.2-1.2,2.3-2.3,3.3-3.2
		c0.6-0.5,1.1-1.1,1.7-1.6c2.6-2.4,5.3-4.7,7.9-6.6c0.5-0.4,1.1-0.7,1.6-1.1c1-0.7,2-1.4,3-2c14.2-9.7,25.2-11.2,32.4-12.3
		c1.4-0.2,2.6-0.4,3.8-0.6c0.5-0.1,0.8-0.1,1.3-0.1h0.1c3,0,5.6,1.9,6.6,4.8c0.4,1.1,0.8,2.3,1.3,3.7c5.5,14.2,15.7,40.7-21,108.6
		c-0.1,0.1-8.6,16.6-20.9,34.3c-16.7,23.9-32.2,38.6-45.9,43.8C106.2,215.1,106.1,215.1,105.9,215.1z M64.2,187.7l41.7,24.4
		c31.5-12.4,64.5-75.9,64.8-76.5c36.1-66.8,26.2-92.4,20.8-106.2c-0.5-1.3-1.1-2.6-1.4-3.8l0,0c-0.6-1.8-2.2-3-4.1-2.9
		c-0.2,0-0.5,0-0.8,0.1c-1.2,0.2-2.5,0.5-3.9,0.6c-6.9,1-17.6,2.5-31.2,11.8c-1,0.6-1.9,1.3-2.9,2c-0.5,0.4-1,0.7-1.4,1.1
		c-2.5,1.9-5.1,4.1-7.8,6.5c-0.5,0.5-1.1,1-1.7,1.6c-1.1,1.1-2.2,2-3.3,3.2c-1.1,1.1-2.3,2.3-3.5,3.5c-10,10.6-20.3,24.3-30.6,40.7
		c-0.1,0.1-6.7,10.3-14.1,24.4c-1.2,2.3-2.4,4.7-3.5,6.8c-1.9,3.8-3.6,7.5-5.3,11.1c-1.2,2.6-2.3,5.3-3.2,7.8
		c-1.7,4.1-3.1,8.1-4.3,11.8c-1.3,4.1-2.4,8-3.1,11.7c-0.6,2.6-1,5.1-1.2,7.5C63.8,179.5,63.8,183.8,64.2,187.7z"/>
</g>
<g>
	<path class="st3" d="M67.3,155.3l65.4,38.3c2.9-3.1,10.9-13.2,13.6-16.4L75,135.4C73.4,139.4,68.5,151.3,67.3,155.3z"/>
	<path d="M132.8,194.9c-0.2,0-0.5-0.1-0.7-0.2l-65.4-38.3c-0.6-0.4-0.8-1-0.6-1.7c1.2-3.7,5.3-13.9,7.2-18.8l0.5-1.2
		c0.1-0.4,0.5-0.7,0.8-0.8s0.8-0.1,1.2,0.1l71.4,41.6c0.4,0.2,0.6,0.6,0.7,1c0.1,0.4,0,0.8-0.2,1.1l-0.8,1.1
		c-3.3,4.1-10.2,12.6-12.8,15.4C133.5,194.7,133.1,194.9,132.8,194.9z M69,154.7l63.4,37.1c2.9-3.2,8.7-10.5,11.7-14.2l-68.5-40.1
		C73.9,141.6,70.5,150.5,69,154.7z"/>
</g>
<g>
	<path class="st4" d="M138.3,226.9c0,0,12.2-25.8,20.3-49.9"/>
	<path class="st5" d="M138.3,228.3c-0.2,0-0.4,0-0.6-0.1c-0.7-0.4-1-1.2-0.7-1.9c0.1-0.2,12.2-26.1,20.2-49.7
		c0.2-0.7,1.1-1.1,1.8-0.8s1.1,1.1,0.8,1.8c-8.1,23.8-20.2,49.7-20.3,50C139.3,228,138.7,228.3,138.3,228.3z"/>
</g>
<circle class="st6" cx="152.2" cy="83.2" r="19.2"/>
<path class="st7" d="M97.2,218.2l-2.1-1.3l-8.9,7.5c-0.1,0.2-0.5,0-0.4-0.2l0.8-12.7l-0.1-0.1l-19.8,19.1c-0.3,0.3-0.9,0-0.8-0.5
	l7.1-26.8l-10.4,6.1c-0.2,0.1-0.5-0.1-0.3-0.3l4.5-10l-1.7-1c-0.1-0.1-0.3,0-0.4,0.1l-15.8,25.2c-0.2,0.3,0.1,0.6,0.4,0.4l16.8-9.7
	c0.2-0.1,0.5,0.1,0.4,0.3l-14.6,39.4c-0.2,0.6,0.5,1,0.9,0.6l27.6-30.6c0.2-0.2,0.5,0,0.5,0.2l-3,20.4c-0.1,0.3,0.3,0.5,0.5,0.2
	l18.9-26.1C97.4,218.4,97.3,218.3,97.2,218.2z"/>
</svg>
